<?xml version="1.0" encoding="UTF-8"?> <svg xmlns="http://www.w3.org/2000/svg" xmlns:xlink="http://www.w3.org/1999/xlink" width="276" zoomAndPan="magnify" viewBox="0 0 206.87999 215.999996" height="288" preserveAspectRatio="xMidYMid meet" version="1.0"><defs><clipPath id="f7a54797b8"><path d="M 35 31 L 172 31 L 172 184 L 35 184 Z M 35 31 " clip-rule="nonzero"></path></clipPath><clipPath id="af6c3ca21c"><path d="M 91.910156 31.972656 L 171.492188 72.257812 L 114.957031 183.941406 L 35.375 143.65625 Z M 91.910156 31.972656 " clip-rule="nonzero"></path></clipPath><clipPath id="dd2a10df37"><path d="M 91.910156 31.972656 L 171.492188 72.257812 L 114.957031 183.941406 L 35.375 143.65625 Z M 91.910156 31.972656 " clip-rule="nonzero"></path></clipPath><clipPath id="e3eeba1e80"><path d="M 38 34 L 169 34 L 169 182 L 38 182 Z M 38 34 " clip-rule="nonzero"></path></clipPath><clipPath id="da794307ec"><path d="M 91.910156 31.972656 L 171.492188 72.257812 L 114.957031 183.941406 L 35.375 143.65625 Z M 91.910156 31.972656 " clip-rule="nonzero"></path></clipPath><clipPath id="3a6421c39f"><path d="M 91.910156 31.972656 L 171.492188 72.257812 L 114.957031 183.941406 L 35.375 143.65625 Z M 91.910156 31.972656 " clip-rule="nonzero"></path></clipPath><clipPath id="0eed7d1c8d"><path d="M 96 45 L 120 45 L 120 58 L 96 58 Z M 96 45 " clip-rule="nonzero"></path></clipPath><clipPath id="2a0109b9ec"><path d="M 91.910156 31.972656 L 171.492188 72.257812 L 114.957031 183.941406 L 35.375 143.65625 Z M 91.910156 31.972656 " clip-rule="nonzero"></path></clipPath><clipPath id="68730d511b"><path d="M 91.910156 31.972656 L 171.492188 72.257812 L 114.957031 183.941406 L 35.375 143.65625 Z M 91.910156 31.972656 " clip-rule="nonzero"></path></clipPath><clipPath id="14432eac32"><path d="M 135 64 L 158 64 L 158 77 L 135 77 Z M 135 64 " clip-rule="nonzero"></path></clipPath><clipPath id="59b4d7d3cf"><path d="M 91.910156 31.972656 L 171.492188 72.257812 L 114.957031 183.941406 L 35.375 143.65625 Z M 91.910156 31.972656 " clip-rule="nonzero"></path></clipPath><clipPath id="52e9f884f0"><path d="M 91.910156 31.972656 L 171.492188 72.257812 L 114.957031 183.941406 L 35.375 143.65625 Z M 91.910156 31.972656 " clip-rule="nonzero"></path></clipPath><clipPath id="6925987cec"><path d="M 92 53 L 119 53 L 119 68 L 92 68 Z M 92 53 " clip-rule="nonzero"></path></clipPath><clipPath id="d715a40de0"><path d="M 91.910156 31.972656 L 171.492188 72.257812 L 114.957031 183.941406 L 35.375 143.65625 Z M 91.910156 31.972656 " clip-rule="nonzero"></path></clipPath><clipPath id="9a1a865325"><path d="M 91.910156 31.972656 L 171.492188 72.257812 L 114.957031 183.941406 L 35.375 143.65625 Z M 91.910156 31.972656 " clip-rule="nonzero"></path></clipPath><clipPath id="377196a5bf"><path d="M 81 58 L 152 58 L 152 108 L 81 108 Z M 81 58 " clip-rule="nonzero"></path></clipPath><clipPath id="880243a9bc"><path d="M 91.910156 31.972656 L 171.492188 72.257812 L 114.957031 183.941406 L 35.375 143.65625 Z M 91.910156 31.972656 " clip-rule="nonzero"></path></clipPath><clipPath id="35cacf1a72"><path d="M 91.910156 31.972656 L 171.492188 72.257812 L 114.957031 183.941406 L 35.375 143.65625 Z M 91.910156 31.972656 " clip-rule="nonzero"></path></clipPath><clipPath id="7aadac3d08"><path d="M 91 64 L 97 64 L 97 68 L 91 68 Z M 91 64 " clip-rule="nonzero"></path></clipPath><clipPath id="16c3516a56"><path d="M 91.910156 31.972656 L 171.492188 72.257812 L 114.957031 183.941406 L 35.375 143.65625 Z M 91.910156 31.972656 " clip-rule="nonzero"></path></clipPath><clipPath id="8cf43e9eeb"><path d="M 91.910156 31.972656 L 171.492188 72.257812 L 114.957031 183.941406 L 35.375 143.65625 Z M 91.910156 31.972656 " clip-rule="nonzero"></path></clipPath><clipPath id="03bd34314f"><path d="M 99 68 L 138 68 L 138 88 L 99 88 Z M 99 68 " clip-rule="nonzero"></path></clipPath><clipPath id="26f53ad542"><path d="M 91.910156 31.972656 L 171.492188 72.257812 L 114.957031 183.941406 L 35.375 143.65625 Z M 91.910156 31.972656 " clip-rule="nonzero"></path></clipPath><clipPath id="1c1d43e7d8"><path d="M 91.910156 31.972656 L 171.492188 72.257812 L 114.957031 183.941406 L 35.375 143.65625 Z M 91.910156 31.972656 " clip-rule="nonzero"></path></clipPath><clipPath id="bade39fc25"><path d="M 97 72 L 135 72 L 135 93 L 97 93 Z M 97 72 " clip-rule="nonzero"></path></clipPath><clipPath id="8772580bfe"><path d="M 91.910156 31.972656 L 171.492188 72.257812 L 114.957031 183.941406 L 35.375 143.65625 Z M 91.910156 31.972656 " clip-rule="nonzero"></path></clipPath><clipPath id="e57e5af912"><path d="M 91.910156 31.972656 L 171.492188 72.257812 L 114.957031 183.941406 L 35.375 143.65625 Z M 91.910156 31.972656 " clip-rule="nonzero"></path></clipPath><clipPath id="e354646070"><path d="M 94 77 L 133 77 L 133 97 L 94 97 Z M 94 77 " clip-rule="nonzero"></path></clipPath><clipPath id="a1e5723b4b"><path d="M 91.910156 31.972656 L 171.492188 72.257812 L 114.957031 183.941406 L 35.375 143.65625 Z M 91.910156 31.972656 " clip-rule="nonzero"></path></clipPath><clipPath id="1ebcf95ffe"><path d="M 91.910156 31.972656 L 171.492188 72.257812 L 114.957031 183.941406 L 35.375 143.65625 Z M 91.910156 31.972656 " clip-rule="nonzero"></path></clipPath><clipPath id="7a3e4cdc49"><path d="M 89 68 L 95 68 L 95 72 L 89 72 Z M 89 68 " clip-rule="nonzero"></path></clipPath><clipPath id="0e5d9f7e09"><path d="M 91.910156 31.972656 L 171.492188 72.257812 L 114.957031 183.941406 L 35.375 143.65625 Z M 91.910156 31.972656 " clip-rule="nonzero"></path></clipPath><clipPath id="d25a0968cf"><path d="M 91.910156 31.972656 L 171.492188 72.257812 L 114.957031 183.941406 L 35.375 143.65625 Z M 91.910156 31.972656 " clip-rule="nonzero"></path></clipPath><clipPath id="87842087b8"><path d="M 87 73 L 93 73 L 93 77 L 87 77 Z M 87 73 " clip-rule="nonzero"></path></clipPath><clipPath id="f71a68a164"><path d="M 91.910156 31.972656 L 171.492188 72.257812 L 114.957031 183.941406 L 35.375 143.65625 Z M 91.910156 31.972656 " clip-rule="nonzero"></path></clipPath><clipPath id="a9894c6915"><path d="M 91.910156 31.972656 L 171.492188 72.257812 L 114.957031 183.941406 L 35.375 143.65625 Z M 91.910156 31.972656 " clip-rule="nonzero"></path></clipPath><clipPath id="7bbd5970ae"><path d="M 76 83 L 103 83 L 103 98 L 76 98 Z M 76 83 " clip-rule="nonzero"></path></clipPath><clipPath id="36160e26d9"><path d="M 91.910156 31.972656 L 171.492188 72.257812 L 114.957031 183.941406 L 35.375 143.65625 Z M 91.910156 31.972656 " clip-rule="nonzero"></path></clipPath><clipPath id="eb52786d58"><path d="M 91.910156 31.972656 L 171.492188 72.257812 L 114.957031 183.941406 L 35.375 143.65625 Z M 91.910156 31.972656 " clip-rule="nonzero"></path></clipPath><clipPath id="d3d212fd2c"><path d="M 63 88 L 136 88 L 136 142 L 63 142 Z M 63 88 " clip-rule="nonzero"></path></clipPath><clipPath id="b3821aa507"><path d="M 91.910156 31.972656 L 171.492188 72.257812 L 114.957031 183.941406 L 35.375 143.65625 Z M 91.910156 31.972656 " clip-rule="nonzero"></path></clipPath><clipPath id="64e58e25ac"><path d="M 91.910156 31.972656 L 171.492188 72.257812 L 114.957031 183.941406 L 35.375 143.65625 Z M 91.910156 31.972656 " clip-rule="nonzero"></path></clipPath><clipPath id="1e8273f46d"><path d="M 76 94 L 82 94 L 82 98 L 76 98 Z M 76 94 " clip-rule="nonzero"></path></clipPath><clipPath id="c6ab488e46"><path d="M 91.910156 31.972656 L 171.492188 72.257812 L 114.957031 183.941406 L 35.375 143.65625 Z M 91.910156 31.972656 " clip-rule="nonzero"></path></clipPath><clipPath id="f366980270"><path d="M 91.910156 31.972656 L 171.492188 72.257812 L 114.957031 183.941406 L 35.375 143.65625 Z M 91.910156 31.972656 " clip-rule="nonzero"></path></clipPath><clipPath id="b1f1ffe17a"><path d="M 84 98 L 122 98 L 122 118 L 84 118 Z M 84 98 " clip-rule="nonzero"></path></clipPath><clipPath id="ae306ad88b"><path d="M 91.910156 31.972656 L 171.492188 72.257812 L 114.957031 183.941406 L 35.375 143.65625 Z M 91.910156 31.972656 " clip-rule="nonzero"></path></clipPath><clipPath id="662ea627aa"><path d="M 91.910156 31.972656 L 171.492188 72.257812 L 114.957031 183.941406 L 35.375 143.65625 Z M 91.910156 31.972656 " clip-rule="nonzero"></path></clipPath><clipPath id="60a426a93c"><path d="M 81 102 L 120 102 L 120 123 L 81 123 Z M 81 102 " clip-rule="nonzero"></path></clipPath><clipPath id="fcafb2be56"><path d="M 91.910156 31.972656 L 171.492188 72.257812 L 114.957031 183.941406 L 35.375 143.65625 Z M 91.910156 31.972656 " clip-rule="nonzero"></path></clipPath><clipPath id="f90c58e6fa"><path d="M 91.910156 31.972656 L 171.492188 72.257812 L 114.957031 183.941406 L 35.375 143.65625 Z M 91.910156 31.972656 " clip-rule="nonzero"></path></clipPath><clipPath id="2ac177fa0b"><path d="M 79 107 L 118 107 L 118 128 L 79 128 Z M 79 107 " clip-rule="nonzero"></path></clipPath><clipPath id="7d88bacb08"><path d="M 91.910156 31.972656 L 171.492188 72.257812 L 114.957031 183.941406 L 35.375 143.65625 Z M 91.910156 31.972656 " clip-rule="nonzero"></path></clipPath><clipPath id="858c9a63e1"><path d="M 91.910156 31.972656 L 171.492188 72.257812 L 114.957031 183.941406 L 35.375 143.65625 Z M 91.910156 31.972656 " clip-rule="nonzero"></path></clipPath><clipPath id="11196d7a0b"><path d="M 74 99 L 80 99 L 80 103 L 74 103 Z M 74 99 " clip-rule="nonzero"></path></clipPath><clipPath id="f884564d50"><path d="M 91.910156 31.972656 L 171.492188 72.257812 L 114.957031 183.941406 L 35.375 143.65625 Z M 91.910156 31.972656 " clip-rule="nonzero"></path></clipPath><clipPath id="17789a542f"><path d="M 91.910156 31.972656 L 171.492188 72.257812 L 114.957031 183.941406 L 35.375 143.65625 Z M 91.910156 31.972656 " clip-rule="nonzero"></path></clipPath><clipPath id="4ac06274fd"><path d="M 71 103 L 78 103 L 78 107 L 71 107 Z M 71 103 " clip-rule="nonzero"></path></clipPath><clipPath id="4441c1e3de"><path d="M 91.910156 31.972656 L 171.492188 72.257812 L 114.957031 183.941406 L 35.375 143.65625 Z M 91.910156 31.972656 " clip-rule="nonzero"></path></clipPath><clipPath id="ab5a234a30"><path d="M 91.910156 31.972656 L 171.492188 72.257812 L 114.957031 183.941406 L 35.375 143.65625 Z M 91.910156 31.972656 " clip-rule="nonzero"></path></clipPath><clipPath id="affd3d0774"><path d="M 77 111 L 115 111 L 115 132 L 77 132 Z M 77 111 " clip-rule="nonzero"></path></clipPath><clipPath id="651b000ac5"><path d="M 91.910156 31.972656 L 171.492188 72.257812 L 114.957031 183.941406 L 35.375 143.65625 Z M 91.910156 31.972656 " clip-rule="nonzero"></path></clipPath><clipPath id="abb56ef74c"><path d="M 91.910156 31.972656 L 171.492188 72.257812 L 114.957031 183.941406 L 35.375 143.65625 Z M 91.910156 31.972656 " clip-rule="nonzero"></path></clipPath><clipPath id="a84c4f8a19"><path d="M 69 108 L 75 108 L 75 112 L 69 112 Z M 69 108 " clip-rule="nonzero"></path></clipPath><clipPath id="df311ae37d"><path d="M 91.910156 31.972656 L 171.492188 72.257812 L 114.957031 183.941406 L 35.375 143.65625 Z M 91.910156 31.972656 " clip-rule="nonzero"></path></clipPath><clipPath id="00f3aa71c9"><path d="M 91.910156 31.972656 L 171.492188 72.257812 L 114.957031 183.941406 L 35.375 143.65625 Z M 91.910156 31.972656 " clip-rule="nonzero"></path></clipPath><clipPath id="ae97623b45"><path d="M 59 117 L 86 117 L 86 132 L 59 132 Z M 59 117 " clip-rule="nonzero"></path></clipPath><clipPath id="70b6699b47"><path d="M 91.910156 31.972656 L 171.492188 72.257812 L 114.957031 183.941406 L 35.375 143.65625 Z M 91.910156 31.972656 " clip-rule="nonzero"></path></clipPath><clipPath id="057169dc4c"><path d="M 91.910156 31.972656 L 171.492188 72.257812 L 114.957031 183.941406 L 35.375 143.65625 Z M 91.910156 31.972656 " clip-rule="nonzero"></path></clipPath><clipPath id="8868383a50"><path d="M 48 122 L 119 122 L 119 171 L 48 171 Z M 48 122 " clip-rule="nonzero"></path></clipPath><clipPath id="dbc5468c39"><path d="M 91.910156 31.972656 L 171.492188 72.257812 L 114.957031 183.941406 L 35.375 143.65625 Z M 91.910156 31.972656 " clip-rule="nonzero"></path></clipPath><clipPath id="ed3f8583ec"><path d="M 91.910156 31.972656 L 171.492188 72.257812 L 114.957031 183.941406 L 35.375 143.65625 Z M 91.910156 31.972656 " clip-rule="nonzero"></path></clipPath><clipPath id="4b385fccab"><path d="M 59 128 L 65 128 L 65 132 L 59 132 Z M 59 128 " clip-rule="nonzero"></path></clipPath><clipPath id="3aa4831199"><path d="M 91.910156 31.972656 L 171.492188 72.257812 L 114.957031 183.941406 L 35.375 143.65625 Z M 91.910156 31.972656 " clip-rule="nonzero"></path></clipPath><clipPath id="e05df12511"><path d="M 91.910156 31.972656 L 171.492188 72.257812 L 114.957031 183.941406 L 35.375 143.65625 Z M 91.910156 31.972656 " clip-rule="nonzero"></path></clipPath><clipPath id="d1cc43534c"><path d="M 66 132 L 105 132 L 105 152 L 66 152 Z M 66 132 " clip-rule="nonzero"></path></clipPath><clipPath id="6022d16baa"><path d="M 91.910156 31.972656 L 171.492188 72.257812 L 114.957031 183.941406 L 35.375 143.65625 Z M 91.910156 31.972656 " clip-rule="nonzero"></path></clipPath><clipPath id="9ae5643e32"><path d="M 91.910156 31.972656 L 171.492188 72.257812 L 114.957031 183.941406 L 35.375 143.65625 Z M 91.910156 31.972656 " clip-rule="nonzero"></path></clipPath><clipPath id="7a260397ea"><path d="M 64 136 L 103 136 L 103 157 L 64 157 Z M 64 136 " clip-rule="nonzero"></path></clipPath><clipPath id="164e43f0ca"><path d="M 91.910156 31.972656 L 171.492188 72.257812 L 114.957031 183.941406 L 35.375 143.65625 Z M 91.910156 31.972656 " clip-rule="nonzero"></path></clipPath><clipPath id="0a0c99a0ab"><path d="M 91.910156 31.972656 L 171.492188 72.257812 L 114.957031 183.941406 L 35.375 143.65625 Z M 91.910156 31.972656 " clip-rule="nonzero"></path></clipPath><clipPath id="84f6232947"><path d="M 62 141 L 100 141 L 100 162 L 62 162 Z M 62 141 " clip-rule="nonzero"></path></clipPath><clipPath id="da5b1b3faa"><path d="M 91.910156 31.972656 L 171.492188 72.257812 L 114.957031 183.941406 L 35.375 143.65625 Z M 91.910156 31.972656 " clip-rule="nonzero"></path></clipPath><clipPath id="0d22f84def"><path d="M 91.910156 31.972656 L 171.492188 72.257812 L 114.957031 183.941406 L 35.375 143.65625 Z M 91.910156 31.972656 " clip-rule="nonzero"></path></clipPath><clipPath id="864d5f43b4"><path d="M 56 133 L 63 133 L 63 137 L 56 137 Z M 56 133 " clip-rule="nonzero"></path></clipPath><clipPath id="f7bb524b23"><path d="M 91.910156 31.972656 L 171.492188 72.257812 L 114.957031 183.941406 L 35.375 143.65625 Z M 91.910156 31.972656 " clip-rule="nonzero"></path></clipPath><clipPath id="59468c659b"><path d="M 91.910156 31.972656 L 171.492188 72.257812 L 114.957031 183.941406 L 35.375 143.65625 Z M 91.910156 31.972656 " clip-rule="nonzero"></path></clipPath><clipPath id="c97ff1069f"><path d="M 54 137 L 60 137 L 60 141 L 54 141 Z M 54 137 " clip-rule="nonzero"></path></clipPath><clipPath id="0a20cb57d8"><path d="M 91.910156 31.972656 L 171.492188 72.257812 L 114.957031 183.941406 L 35.375 143.65625 Z M 91.910156 31.972656 " clip-rule="nonzero"></path></clipPath><clipPath id="40ba79b53c"><path d="M 91.910156 31.972656 L 171.492188 72.257812 L 114.957031 183.941406 L 35.375 143.65625 Z M 91.910156 31.972656 " clip-rule="nonzero"></path></clipPath><clipPath id="e9d7044015"><path d="M 93 41 L 124 41 L 124 61 L 93 61 Z M 93 41 " clip-rule="nonzero"></path></clipPath><clipPath id="b2dcbed22e"><path d="M 96.15625 41.980469 L 123.496094 55.820312 L 121.078125 60.59375 L 93.738281 46.753906 Z M 96.15625 41.980469 " clip-rule="nonzero"></path></clipPath><clipPath id="c63162ac1a"><path d="M 96.15625 41.980469 L 123.496094 55.820312 L 121.078125 60.59375 L 93.738281 46.753906 Z M 96.15625 41.980469 " clip-rule="nonzero"></path></clipPath><clipPath id="d268b02176"><path d="M 89 51 L 119 51 L 119 69 L 89 69 Z M 89 51 " clip-rule="nonzero"></path></clipPath><clipPath id="8f379aabc4"><path d="M 91.125 51.914062 L 118.46875 65.757812 L 117.226562 68.207031 L 89.886719 54.367188 Z M 91.125 51.914062 " clip-rule="nonzero"></path></clipPath><clipPath id="48e14956f2"><path d="M 91.125 51.914062 L 118.46875 65.757812 L 117.226562 68.207031 L 89.886719 54.367188 Z M 91.125 51.914062 " clip-rule="nonzero"></path></clipPath><clipPath id="41a0273ecb"><path d="M 72 71 L 141 71 L 141 118 L 72 118 Z M 72 71 " clip-rule="nonzero"></path></clipPath><clipPath id="9dedf0d751"><path d="M 206.875 19.1875 L 130.433594 141.125 L 66.289062 100.914062 L 142.730469 -21.023438 Z M 206.875 19.1875 " clip-rule="nonzero"></path></clipPath><clipPath id="6317117b45"><path d="M 206.875 19.1875 L 130.433594 141.125 L 66.289062 100.914062 L 142.730469 -21.023438 Z M 206.875 19.1875 " clip-rule="nonzero"></path></clipPath><clipPath id="63624b7fb9"><path d="M 129 78 L 156 78 L 156 111 L 129 111 Z M 129 78 " clip-rule="nonzero"></path></clipPath><clipPath id="ce774ec3cd"><path d="M 206.875 19.1875 L 130.433594 141.125 L 66.289062 100.914062 L 142.730469 -21.023438 Z M 206.875 19.1875 " clip-rule="nonzero"></path></clipPath><clipPath id="839ebd5312"><path d="M 206.875 19.1875 L 130.433594 141.125 L 66.289062 100.914062 L 142.730469 -21.023438 Z M 206.875 19.1875 " clip-rule="nonzero"></path></clipPath><clipPath id="46edf154d8"><path d="M 141 42 L 175 42 L 175 76 L 141 76 Z M 141 42 " clip-rule="nonzero"></path></clipPath><clipPath id="694792dc98"><path d="M 206.875 19.1875 L 130.433594 141.125 L 66.289062 100.914062 L 142.730469 -21.023438 Z M 206.875 19.1875 " clip-rule="nonzero"></path></clipPath><clipPath id="b331a3b4b3"><path d="M 206.875 19.1875 L 130.433594 141.125 L 66.289062 100.914062 L 142.730469 -21.023438 Z M 206.875 19.1875 " clip-rule="nonzero"></path></clipPath><clipPath id="3975da3c3d"><path d="M 166 6 L 199 6 L 199 39 L 166 39 Z M 166 6 " clip-rule="nonzero"></path></clipPath><clipPath id="6e12900c1b"><path d="M 206.875 19.1875 L 130.433594 141.125 L 66.289062 100.914062 L 142.730469 -21.023438 Z M 206.875 19.1875 " clip-rule="nonzero"></path></clipPath><clipPath id="44d23c91c2"><path d="M 206.875 19.1875 L 130.433594 141.125 L 66.289062 100.914062 L 142.730469 -21.023438 Z M 206.875 19.1875 " clip-rule="nonzero"></path></clipPath></defs><g clip-path="url(#f7a54797b8)"><g clip-path="url(#af6c3ca21c)"><g clip-path="url(#dd2a10df37)"><path fill="#9abad6" d="M 171.503906 72.296875 L 114.957031 184.003906 L 35.34375 143.703125 L 91.890625 31.996094 Z M 171.503906 72.296875 " fill-opacity="1" fill-rule="nonzero"></path></g></g></g><g clip-path="url(#e3eeba1e80)"><g clip-path="url(#da794307ec)"><g clip-path="url(#3a6421c39f)"><path fill="#ffffff" d="M 168.667969 73.226562 L 114.027344 181.164062 L 38.183594 142.769531 L 92.824219 34.835938 Z M 168.667969 73.226562 " fill-opacity="1" fill-rule="nonzero"></path></g></g></g><g clip-path="url(#0eed7d1c8d)"><g clip-path="url(#2a0109b9ec)"><g clip-path="url(#68730d511b)"><path fill="#9abad6" d="M 97.144531 45.023438 L 119.507812 56.347656 L 119.132812 57.089844 L 96.765625 45.769531 Z M 97.144531 45.023438 " fill-opacity="1" fill-rule="nonzero"></path></g></g></g><g clip-path="url(#14432eac32)"><g clip-path="url(#59b4d7d3cf)"><g clip-path="url(#52e9f884f0)"><path fill="#9abad6" d="M 135.519531 64.449219 L 157.882812 75.773438 L 157.507812 76.515625 L 135.140625 65.195312 Z M 135.519531 64.449219 " fill-opacity="1" fill-rule="nonzero"></path></g></g></g><g clip-path="url(#6925987cec)"><g clip-path="url(#d715a40de0)"><g clip-path="url(#9a1a865325)"><path fill="#9abad6" d="M 92.9375 53.332031 L 118.027344 66.03125 L 117.257812 67.546875 L 92.171875 54.84375 Z M 92.9375 53.332031 " fill-opacity="1" fill-rule="nonzero"></path></g></g></g><g clip-path="url(#377196a5bf)"><g clip-path="url(#880243a9bc)"><g clip-path="url(#35cacf1a72)"><path fill="#f3f5f9" d="M 90.265625 58.617188 L 151.003906 89.363281 L 142.0625 107.027344 L 81.324219 76.277344 Z M 90.265625 58.617188 " fill-opacity="1" fill-rule="nonzero"></path></g></g></g><g clip-path="url(#7aadac3d08)"><g clip-path="url(#16c3516a56)"><g clip-path="url(#8cf43e9eeb)"><path fill="#9abad6" d="M 92.160156 64.28125 L 96.929688 66.699219 L 96.554688 67.441406 L 91.785156 65.027344 Z M 92.160156 64.28125 " fill-opacity="1" fill-rule="nonzero"></path></g></g></g><g clip-path="url(#03bd34314f)"><g clip-path="url(#26f53ad542)"><g clip-path="url(#1c1d43e7d8)"><path fill="#9abad6" d="M 99.722656 68.113281 L 137.007812 86.984375 L 136.628906 87.730469 L 99.347656 68.855469 Z M 99.722656 68.113281 " fill-opacity="1" fill-rule="nonzero"></path></g></g></g><g clip-path="url(#bade39fc25)"><g clip-path="url(#8772580bfe)"><g clip-path="url(#e57e5af912)"><path fill="#9abad6" d="M 97.425781 72.648438 L 134.707031 91.523438 L 134.332031 92.265625 L 97.050781 73.394531 Z M 97.425781 72.648438 " fill-opacity="1" fill-rule="nonzero"></path></g></g></g><g clip-path="url(#e354646070)"><g clip-path="url(#a1e5723b4b)"><g clip-path="url(#1ebcf95ffe)"><path fill="#9abad6" d="M 95.128906 77.1875 L 132.410156 96.058594 L 132.035156 96.804688 L 94.753906 77.933594 Z M 95.128906 77.1875 " fill-opacity="1" fill-rule="nonzero"></path></g></g></g><g clip-path="url(#7a3e4cdc49)"><g clip-path="url(#0e5d9f7e09)"><g clip-path="url(#d25a0968cf)"><path fill="#9abad6" d="M 89.863281 68.820312 L 94.632812 71.234375 L 94.257812 71.980469 L 89.488281 69.566406 Z M 89.863281 68.820312 " fill-opacity="1" fill-rule="nonzero"></path></g></g></g><g clip-path="url(#87842087b8)"><g clip-path="url(#f71a68a164)"><g clip-path="url(#a9894c6915)"><path fill="#9abad6" d="M 87.566406 73.359375 L 92.335938 75.773438 L 91.960938 76.519531 L 87.1875 74.105469 Z M 87.566406 73.359375 " fill-opacity="1" fill-rule="nonzero"></path></g></g></g><g clip-path="url(#7bbd5970ae)"><g clip-path="url(#36160e26d9)"><g clip-path="url(#eb52786d58)"><path fill="#9abad6" d="M 77.648438 83.539062 L 102.734375 96.238281 L 101.96875 97.753906 L 76.882812 85.054688 Z M 77.648438 83.539062 " fill-opacity="1" fill-rule="nonzero"></path></g></g></g><g clip-path="url(#d3d212fd2c)"><g clip-path="url(#b3821aa507)"><g clip-path="url(#64e58e25ac)"><path fill="#f3f5f9" d="M 74.960938 88.847656 L 135.703125 119.59375 L 124.59375 141.539062 L 63.851562 110.792969 Z M 74.960938 88.847656 " fill-opacity="1" fill-rule="nonzero"></path></g></g></g><g clip-path="url(#1e8273f46d)"><g clip-path="url(#c6ab488e46)"><g clip-path="url(#f366980270)"><path fill="#9abad6" d="M 76.859375 94.511719 L 81.628906 96.929688 L 81.25 97.671875 L 76.480469 95.257812 Z M 76.859375 94.511719 " fill-opacity="1" fill-rule="nonzero"></path></g></g></g><g clip-path="url(#b1f1ffe17a)"><g clip-path="url(#ae306ad88b)"><g clip-path="url(#662ea627aa)"><path fill="#9abad6" d="M 84.421875 98.34375 L 121.703125 117.214844 L 121.324219 117.960938 L 84.042969 99.085938 Z M 84.421875 98.34375 " fill-opacity="1" fill-rule="nonzero"></path></g></g></g><g clip-path="url(#60a426a93c)"><g clip-path="url(#fcafb2be56)"><g clip-path="url(#f90c58e6fa)"><path fill="#9abad6" d="M 82.136719 102.855469 L 119.417969 121.730469 L 119.039062 122.472656 L 81.757812 103.601562 Z M 82.136719 102.855469 " fill-opacity="1" fill-rule="nonzero"></path></g></g></g><g clip-path="url(#2ac177fa0b)"><g clip-path="url(#7d88bacb08)"><g clip-path="url(#858c9a63e1)"><path fill="#9abad6" d="M 79.839844 107.394531 L 117.121094 126.265625 L 116.742188 127.011719 L 79.460938 108.140625 Z M 79.839844 107.394531 " fill-opacity="1" fill-rule="nonzero"></path></g></g></g><g clip-path="url(#11196d7a0b)"><g clip-path="url(#f884564d50)"><g clip-path="url(#17789a542f)"><path fill="#9abad6" d="M 74.570312 99.027344 L 79.34375 101.441406 L 78.964844 102.1875 L 74.195312 99.773438 Z M 74.570312 99.027344 " fill-opacity="1" fill-rule="nonzero"></path></g></g></g><g clip-path="url(#4ac06274fd)"><g clip-path="url(#4441c1e3de)"><g clip-path="url(#ab5a234a30)"><path fill="#9abad6" d="M 72.273438 103.566406 L 77.046875 105.980469 L 76.667969 106.726562 L 71.898438 104.3125 Z M 72.273438 103.566406 " fill-opacity="1" fill-rule="nonzero"></path></g></g></g><g clip-path="url(#affd3d0774)"><g clip-path="url(#651b000ac5)"><g clip-path="url(#abb56ef74c)"><path fill="#9abad6" d="M 77.542969 111.933594 L 114.824219 130.804688 L 114.445312 131.550781 L 77.164062 112.675781 Z M 77.542969 111.933594 " fill-opacity="1" fill-rule="nonzero"></path></g></g></g><g clip-path="url(#a84c4f8a19)"><g clip-path="url(#df311ae37d)"><g clip-path="url(#00f3aa71c9)"><path fill="#9abad6" d="M 69.976562 108.105469 L 74.75 110.519531 L 74.371094 111.265625 L 69.601562 108.847656 Z M 69.976562 108.105469 " fill-opacity="1" fill-rule="nonzero"></path></g></g></g><g clip-path="url(#ae97623b45)"><g clip-path="url(#70b6699b47)"><g clip-path="url(#057169dc4c)"><path fill="#9abad6" d="M 60.433594 117.539062 L 85.523438 130.238281 L 84.757812 131.753906 L 59.667969 119.054688 Z M 60.433594 117.539062 " fill-opacity="1" fill-rule="nonzero"></path></g></g></g><g clip-path="url(#8868383a50)"><g clip-path="url(#dbc5468c39)"><g clip-path="url(#ed3f8583ec)"><path fill="#f3f5f9" d="M 57.761719 122.824219 L 118.5 153.570312 L 109.726562 170.910156 L 48.984375 140.160156 Z M 57.761719 122.824219 " fill-opacity="1" fill-rule="nonzero"></path></g></g></g><g clip-path="url(#4b385fccab)"><g clip-path="url(#3aa4831199)"><g clip-path="url(#e05df12511)"><path fill="#9abad6" d="M 59.65625 128.492188 L 64.429688 130.90625 L 64.050781 131.648438 L 59.28125 129.234375 Z M 59.65625 128.492188 " fill-opacity="1" fill-rule="nonzero"></path></g></g></g><g clip-path="url(#d1cc43534c)"><g clip-path="url(#6022d16baa)"><g clip-path="url(#9ae5643e32)"><path fill="#9abad6" d="M 67.222656 132.320312 L 104.503906 151.191406 L 104.125 151.9375 L 66.84375 133.0625 Z M 67.222656 132.320312 " fill-opacity="1" fill-rule="nonzero"></path></g></g></g><g clip-path="url(#7a260397ea)"><g clip-path="url(#164e43f0ca)"><g clip-path="url(#0a0c99a0ab)"><path fill="#9abad6" d="M 64.925781 136.855469 L 102.207031 155.730469 L 101.828125 156.472656 L 64.546875 137.601562 Z M 64.925781 136.855469 " fill-opacity="1" fill-rule="nonzero"></path></g></g></g><g clip-path="url(#84f6232947)"><g clip-path="url(#da5b1b3faa)"><g clip-path="url(#0d22f84def)"><path fill="#9abad6" d="M 62.628906 141.394531 L 99.910156 160.269531 L 99.53125 161.011719 L 62.25 142.140625 Z M 62.628906 141.394531 " fill-opacity="1" fill-rule="nonzero"></path></g></g></g><g clip-path="url(#864d5f43b4)"><g clip-path="url(#f7bb524b23)"><g clip-path="url(#59468c659b)"><path fill="#9abad6" d="M 57.359375 133.027344 L 62.132812 135.445312 L 61.753906 136.1875 L 56.984375 133.773438 Z M 57.359375 133.027344 " fill-opacity="1" fill-rule="nonzero"></path></g></g></g><g clip-path="url(#c97ff1069f)"><g clip-path="url(#0a20cb57d8)"><g clip-path="url(#40ba79b53c)"><path fill="#9abad6" d="M 55.0625 137.566406 L 59.835938 139.980469 L 59.457031 140.726562 L 54.6875 138.3125 Z M 55.0625 137.566406 " fill-opacity="1" fill-rule="nonzero"></path></g></g></g><g clip-path="url(#e9d7044015)"><g clip-path="url(#b2dcbed22e)"><g clip-path="url(#c63162ac1a)"><path fill="#00bf86" d="M 96.15625 41.980469 L 123.496094 55.820312 L 121.078125 60.59375 L 93.738281 46.753906 Z M 96.15625 41.980469 " fill-opacity="1" fill-rule="nonzero"></path></g></g></g><g clip-path="url(#d268b02176)"><g clip-path="url(#8f379aabc4)"><g clip-path="url(#48e14956f2)"><path fill="#203346" d="M 91.125 51.914062 L 118.46875 65.757812 L 117.226562 68.207031 L 89.886719 54.367188 Z M 91.125 51.914062 " fill-opacity="1" fill-rule="nonzero"></path></g></g></g><g clip-path="url(#41a0273ecb)"><g clip-path="url(#9dedf0d751)"><g clip-path="url(#6317117b45)"><path fill="#00bf86" d="M 96.515625 116.875 L 137.007812 99.445312 C 138.226562 98.921875 139.195312 98.105469 139.839844 97.078125 C 140.695312 95.714844 140.90625 94.046875 140.4375 92.523438 C 139.929688 90.898438 138.707031 89.597656 136.992188 88.859375 L 96.445312 71.5625 C 93.613281 70.359375 90.425781 71.3125 88.847656 73.828125 C 88.222656 74.824219 87.898438 76.003906 87.886719 77.226562 L 87.898438 86.085938 L 79.039062 86.09375 C 76.714844 86.105469 74.597656 87.273438 73.359375 89.25 C 72.691406 90.316406 72.328125 91.554688 72.328125 92.820312 L 72.328125 95.691406 C 72.335938 97.480469 73.042969 99.167969 74.304688 100.4375 C 75.570312 101.703125 77.261719 102.386719 79.054688 102.402344 L 87.914062 102.390625 L 87.925781 111.25 C 87.9375 113.378906 88.941406 115.3125 90.648438 116.445312 C 92.386719 117.554688 94.566406 117.710938 96.515625 116.875 Z M 92.980469 111.234375 L 92.957031 99.019531 C 92.953125 98.109375 92.207031 97.34375 91.269531 97.351562 L 79.054688 97.375 C 78.128906 97.371094 77.371094 96.617188 77.367188 95.707031 L 77.367188 92.835938 C 77.367188 92.515625 77.464844 92.203125 77.628906 91.945312 C 77.921875 91.476562 78.457031 91.160156 79.050781 91.15625 L 91.269531 91.128906 C 91.863281 91.128906 92.398438 90.808594 92.691406 90.339844 C 92.855469 90.085938 92.953125 89.769531 92.953125 89.453125 L 92.925781 77.238281 C 92.921875 76.960938 93 76.710938 93.113281 76.527344 C 93.375 76.113281 93.886719 75.960938 94.472656 76.226562 L 135.015625 93.523438 C 135.597656 93.769531 135.773438 94.117188 135.578125 94.429688 C 135.480469 94.585938 135.292969 94.726562 135.015625 94.851562 L 94.527344 112.246094 C 93.675781 112.625 92.988281 112.171875 92.980469 111.238281 Z M 92.980469 111.234375 " fill-opacity="1" fill-rule="nonzero"></path></g></g></g><g clip-path="url(#63624b7fb9)"><g clip-path="url(#ce774ec3cd)"><g clip-path="url(#839ebd5312)"><path fill="#00bf86" d="M 137.167969 83.523438 C 139.894531 82.898438 142.839844 83.316406 145.398438 84.921875 C 147.957031 86.527344 149.609375 89.007812 150.246094 91.722656 C 150.871094 94.453125 150.453125 97.394531 148.847656 99.957031 C 147.242188 102.515625 144.777344 104.175781 142.046875 104.800781 C 139.710938 105.335938 137.222656 105.105469 134.957031 104.042969 L 129.421875 106.429688 C 129.972656 106.878906 130.535156 107.308594 131.144531 107.691406 C 138.609375 112.371094 148.4375 110.117188 153.117188 102.652344 C 157.796875 95.1875 155.542969 85.359375 148.078125 80.679688 C 142.078125 76.917969 134.53125 77.652344 129.386719 81.972656 L 134.945312 84.347656 C 135.664062 83.964844 136.40625 83.699219 137.167969 83.523438 Z M 137.167969 83.523438 " fill-opacity="1" fill-rule="nonzero"></path></g></g></g><g clip-path="url(#46edf154d8)"><g clip-path="url(#694792dc98)"><g clip-path="url(#b331a3b4b3)"><path fill="#00bf86" d="M 166.03125 66.132812 C 166.757812 71.003906 174.164062 71.230469 174.164062 71.230469 L 169.765625 42.074219 L 141.632812 50.816406 C 141.632812 50.816406 145.046875 57.371094 149.761719 55.914062 C 153.898438 54.625 158 53.355469 158.917969 53.058594 L 146.914062 72.207031 L 152.601562 75.773438 L 164.597656 56.636719 C 164.765625 57.632812 165.40625 61.855469 166.03125 66.128906 Z M 166.03125 66.132812 " fill-opacity="1" fill-rule="nonzero"></path></g></g></g><g clip-path="url(#3975da3c3d)"><g clip-path="url(#6e12900c1b)"><g clip-path="url(#44d23c91c2)"><path fill="#00bf86" d="M 195.582031 30.929688 C 200.261719 23.464844 198.007812 13.636719 190.542969 8.957031 C 183.082031 4.28125 173.25 6.535156 168.570312 13.996094 C 163.894531 21.460938 166.148438 31.289062 173.613281 35.96875 C 181.074219 40.648438 190.90625 38.394531 195.582031 30.929688 Z M 171.4375 24.90625 C 170.8125 22.175781 171.234375 19.230469 172.835938 16.671875 C 174.441406 14.113281 176.921875 12.460938 179.636719 11.824219 C 182.367188 11.199219 185.3125 11.621094 187.871094 13.222656 C 190.429688 14.828125 192.082031 17.308594 192.714844 20.023438 C 193.34375 22.753906 192.921875 25.699219 191.316406 28.257812 C 189.714844 30.816406 187.246094 32.476562 184.515625 33.105469 C 181.789062 33.730469 178.84375 33.308594 176.285156 31.707031 C 173.726562 30.101562 172.0625 27.632812 171.4375 24.90625 Z M 171.4375 24.90625 " fill-opacity="1" fill-rule="nonzero"></path></g></g></g></svg> 