<?xml version="1.0" encoding="UTF-8"?> <svg xmlns="http://www.w3.org/2000/svg" width="48" height="48" viewBox="0 0 48 48" fill="none"><g clip-path="url(#clip0)"><rect width="48" height="48" rx="12" fill="#78AFFA"></rect><path d="M21.7812 26.2188H24.5781C27.1094 26.2188 28.6562 27.4375 28.6562 29.4062C28.6562 31.3281 27.0156 32.6562 24.6562 32.6562C22.2344 32.6562 20.625 31.4531 20.4844 29.5469H15.9688C16.1719 33.7969 19.5781 36.5781 24.6094 36.5781C29.75 36.5781 33.4688 33.7188 33.4688 29.7656C33.4688 26.7969 31.5312 24.7344 28.4375 24.3906V24.1094C30.9531 23.5938 32.5938 21.5625 32.5938 18.9531C32.5938 15.4062 29.2656 12.875 24.6406 12.875C19.7188 12.875 16.5469 15.5625 16.3906 19.8281H20.75C20.875 17.875 22.3281 16.6406 24.5156 16.6406C26.7188 16.6406 28.125 17.7969 28.125 19.6094C28.125 21.4531 26.6719 22.7031 24.5312 22.7031H21.7812V26.2188Z" fill="white"></path></g><defs><clipPath id="clip0"><rect width="48" height="48" rx="12" fill="white"></rect></clipPath></defs></svg> 